<?xml version="1.0" encoding="utf-8"?><!DOCTYPE svg PUBLIC "-//W3C//DTD SVG 1.1//EN" "http://www.w3.org/Graphics/SVG/1.1/DTD/svg11.dtd"><svg viewBox="0 0 800 800" xmlns="http://www.w3.org/2000/svg" xmlns:xlink="http://www.w3.org/1999/xlink"><style>:root>svg{display:none}:root>svg:target{display:block}</style><svg viewBox="-2 -2 24 24" fill="currentColor" id="check-circle" xmlns="http://www.w3.org/2000/svg"><path d="M10 20C4.477 20 0 15.523 0 10S4.477 0 10 0s10 4.477 10 10-4.477 10-10 10zm0-2a8 8 0 1 0 0-16 8 8 0 0 0 0 16zm0-6.172 3.536-3.535a1 1 0 0 1 1.414 1.414l-4.243 4.243a1 1 0 0 1-1.414 0L5.05 9.707a1 1 0 0 1 1.414-1.414L10 11.828z"/></svg><svg fill="#fff" viewBox="0 0 36 36" id="clipboard" xmlns="http://www.w3.org/2000/svg"><path d="M30 12h-4v2h4v2h2v-2a2 2 0 0 0-2-2Z" class="bclr-i-outline bclr-i-outline-path-1"/><path class="bclr-i-outline bclr-i-outline-path-2" d="M30 18h2v6h-2z"/><path d="M30 30h-2v2h2a2 2 0 0 0 2-2v-4h-2Z" class="bclr-i-outline bclr-i-outline-path-3"/><path d="M24 22V6a2 2 0 0 0-2-2H6a2 2 0 0 0-2 2v16a2 2 0 0 0 2 2h16a2 2 0 0 0 2-2ZM6 6h16v16H6Z" class="bclr-i-outline bclr-i-outline-path-4"/><path class="bclr-i-outline bclr-i-outline-path-5" d="M20 30h6v2h-6z"/><path d="M14 26h-2v4a2 2 0 0 0 2 2h4v-2h-4Z" class="bclr-i-outline bclr-i-outline-path-6"/><path fill="none" d="M0 0h36v36H0z"/></svg><svg fill="#fff" version="1.1" id="dice" viewBox="0 0 512 512" xml:space="preserve" xmlns="http://www.w3.org/2000/svg"><style/><path class="cst0" d="M449.528 105.602 288.459 8.989A63.044 63.044 0 0 0 255.993 0a63.029 63.029 0 0 0-32.452 8.989l-161.07 96.613a63.107 63.107 0 0 0-30.64 54.117v192.562a63.105 63.105 0 0 0 30.64 54.117l161.069 96.613a63.099 63.099 0 0 0 64.918 0l161.069-96.613a63.104 63.104 0 0 0 30.64-54.117V159.719a63.101 63.101 0 0 0-30.639-54.117zM250.595 492.733a44.068 44.068 0 0 1-17.321-5.948L72.206 390.172a44.205 44.205 0 0 1-21.456-37.891V159.719a44.13 44.13 0 0 1 3.518-17.233l196.328 117.76v232.487zM59.665 133.114a44.169 44.169 0 0 1 12.54-11.285l161.069-96.613a44.111 44.111 0 0 1 22.718-6.291 44.121 44.121 0 0 1 22.732 6.291l161.069 96.613a44.223 44.223 0 0 1 12.54 11.285l-196.34 117.767L59.665 133.114zm401.584 219.167a44.205 44.205 0 0 1-21.456 37.891l-161.069 96.613a44.129 44.129 0 0 1-17.32 5.948V260.246l196.328-117.76a44.019 44.019 0 0 1 3.518 17.233v192.562z"/><path class="cst0" d="M367.96 114.498c-10.809-8.01-28.626-8.204-39.784-.45-11.158 7.754-11.44 20.543-.631 28.546 10.822 8.002 28.626 8.203 39.784.45 11.158-7.762 11.44-20.537.631-28.546zM183.676 112.289c-10.816-8.003-28.626-8.211-39.784-.45-11.158 7.754-11.44 20.536-.631 28.538 10.808 8.009 28.626 8.204 39.784.456 11.158-7.766 11.439-20.542.631-28.544zM89.285 248.303c11.158 6.083 20.194 1.961 20.194-9.19 0-11.158-9.036-25.129-20.194-31.21-11.158-6.083-20.201-1.967-20.201 9.19 0 11.151 9.043 25.128 20.201 31.21zM202.057 309.771c11.164 6.082 20.207 1.967 20.207-9.184 0-11.157-9.043-25.135-20.207-31.217-11.144-6.076-20.194-1.961-20.194 9.198 0 11.151 9.05 25.121 20.194 31.203zM89.285 361.082c11.158 6.083 20.194 1.967 20.194-9.19 0-11.158-9.036-25.129-20.194-31.21-11.158-6.083-20.201-1.968-20.201 9.19 0 11.157 9.043 25.128 20.201 31.21zM202.057 422.55c11.164 6.082 20.207 1.967 20.207-9.191 0-11.151-9.043-25.128-20.207-31.21-11.144-6.076-20.194-1.961-20.194 9.19 0 11.158 9.05 25.129 20.194 31.211zM145.671 335.43c11.158 6.076 20.201 1.96 20.201-9.198 0-11.151-9.043-25.128-20.201-31.204-11.15-6.082-20.2-1.967-20.2 9.184 0 11.158 9.05 25.129 20.2 31.218zM414.538 204.559c-11.158 6.082-20.194 20.052-20.194 31.21 0 11.158 9.036 15.273 20.194 9.191 11.157-6.083 20.207-20.053 20.207-31.211 0-11.158-9.05-15.273-20.207-9.19zM414.538 270.33c-11.158 6.09-20.194 20.053-20.194 31.211 0 11.158 9.036 15.273 20.194 9.198 11.157-6.083 20.207-20.06 20.207-31.211 0-11.158-9.05-15.28-20.207-9.198zM316.36 302.642c11.158-6.082 20.208-20.053 20.208-31.211 0-11.151-9.05-15.266-20.208-9.19-11.158 6.082-20.194 20.059-20.194 31.21 0 11.158 9.037 15.273 20.194 9.191zM414.538 336.108c-11.158 6.082-20.194 20.053-20.194 31.204 0 11.158 9.036 15.273 20.194 9.198 11.157-6.083 20.207-20.06 20.207-31.218 0-11.151-9.05-15.266-20.207-9.184zM316.36 393.79c-11.158 6.082-20.194 20.053-20.194 31.211 0 11.15 9.037 15.266 20.194 9.184 11.158-6.076 20.208-20.053 20.208-31.204 0-11.158-9.05-15.273-20.208-9.191zM317.569 328.018c-11.158 6.076-20.194 20.053-20.194 31.204 0 11.158 9.036 15.273 20.194 9.191 11.158-6.082 20.208-20.053 20.208-31.21-.001-11.151-9.05-15.267-20.208-9.185z"/></svg><svg fill="#fff" style="enable-background:new 0 0 478.125 478.125" xml:space="preserve" viewBox="0 0 478.125 478.125" id="download" xmlns="http://www.w3.org/2000/svg"><path d="m153 191.25 86.062 86.062 86.063-86.062-15.3-13.388-61.2 61.2V28.688H229.5v210.374l-61.2-61.2z"/><path d="M382.5 124.312H267.75v19.125h103.275l84.149 133.875h-130.05v38.25c0 21.037-17.213 38.25-38.25 38.25H191.25c-21.038 0-38.25-17.213-38.25-38.25v-38.25H22.95l84.15-133.875h103.275v-19.125H95.625L0 277.312v172.125h478.125V277.312l-95.625-153z"/></svg><svg viewBox="0 0 24 24" id="eye" xmlns="http://www.w3.org/2000/svg"><path d="M12 9.005a4 4 0 1 1 0 8 4 4 0 0 1 0-8ZM12 5.5c4.614 0 8.596 3.15 9.701 7.564a.75.75 0 0 1-1.455.365 8.503 8.503 0 0 0-16.493.004.75.75 0 0 1-1.455-.363A10.003 10.003 0 0 1 12 5.5Z" fill="#212121" fill-rule="nonzero"/></svg><svg style="enable-background:new 0 0 516.375 516.375" xml:space="preserve" viewBox="0 0 516.375 516.375" id="key" xmlns="http://www.w3.org/2000/svg"><path d="M353.812 0C263.925 0 191.25 72.675 191.25 162.562c0 19.125 3.825 38.25 9.562 57.375L0 420.75v95.625h95.625V459H153v-57.375h57.375l86.062-86.062c17.213 5.737 36.338 9.562 57.375 9.562 89.888 0 162.562-72.675 162.562-162.562S443.7 0 353.812 0zm47.813 172.125c-32.513 0-57.375-24.862-57.375-57.375s24.862-57.375 57.375-57.375S459 82.237 459 114.75s-24.862 57.375-57.375 57.375z"/></svg><svg fill="#fff" style="enable-background:new 0 0 516.375 516.375" xml:space="preserve" viewBox="0 0 516.375 516.375" id="lock" xmlns="http://www.w3.org/2000/svg"><path d="M401.625 210.375v-66.938C401.625 65.025 336.6 0 258.188 0 179.775 0 114.75 65.025 114.75 143.438v66.938c-32.513 0-57.375 24.862-57.375 57.375V459c0 32.513 24.862 57.375 57.375 57.375h286.875C434.138 516.375 459 491.513 459 459V267.75c0-30.6-24.862-57.375-57.375-57.375zM267.75 361.463v49.725c0 5.737-3.825 9.562-9.562 9.562s-9.562-3.825-9.562-9.562v-49.725c-11.475-3.825-19.125-15.301-19.125-26.775 0-15.3 13.388-28.688 28.688-28.688s28.688 13.388 28.688 28.688c-.002 13.387-7.652 22.95-19.127 26.775zm76.5-151.088H172.125v-66.938c0-47.812 38.25-86.062 86.062-86.062s86.062 38.25 86.062 86.062v66.938z"/></svg><svg fill="#fff" style="enable-background:new 0 0 592.875 592.875" xml:space="preserve" viewBox="0 0 592.875 592.875" id="lock-unlock" xmlns="http://www.w3.org/2000/svg"><path d="M439.875 286.875h-229.5V143.438c0-47.812 38.25-86.062 86.062-86.062s86.062 38.25 86.062 86.062v68.85c0 19.125 13.388 36.337 28.688 36.337s28.688-15.3 28.688-36.337v-68.85C439.875 65.025 374.85 0 296.438 0 218.025 0 153 65.025 153 143.438v143.438c-32.513 0-57.375 24.862-57.375 57.375V535.5c0 32.513 24.862 57.375 57.375 57.375h286.875c32.513 0 57.375-24.862 57.375-57.375V344.25c0-30.6-24.862-57.375-57.375-57.375zM306 437.963v49.725c0 5.737-3.825 9.562-9.562 9.562s-9.562-3.825-9.562-9.562v-49.725c-11.475-3.825-19.125-15.301-19.125-26.775 0-15.3 13.388-28.688 28.688-28.688s28.688 13.388 28.688 28.688c-.002 13.387-7.652 22.95-19.127 26.775z"/></svg><svg fill="#fff" viewBox="0 0 24 24" id="share" xmlns="http://www.w3.org/2000/svg"><path d="M17 3.002a2.998 2.998 0 1 1-2.148 5.09l-5.457 3.12a3.002 3.002 0 0 1 0 1.577l5.458 3.119a2.998 2.998 0 1 1-.746 1.304l-5.457-3.12a2.998 2.998 0 1 1 0-4.184l5.457-3.12A3.002 3.002 0 0 1 17 3.003Z" fill-rule="nonzero"/></svg><svg viewBox="0 0 36 36" id="undo" xmlns="http://www.w3.org/2000/svg"><path d="M20.87 11.14h-13l5.56-5.49A1 1 0 0 0 12 4.22l-8 7.91L12 20a1 1 0 0 0 1.41-1.42l-5.55-5.44h13a9.08 9.08 0 0 1 9.13 9 9 9 0 0 1-5 8 1 1 0 0 0 .94 1.86 11 11 0 0 0-5.06-20.82Z" class="jclr-i-outline jclr-i-outline-path-1"/><path fill="none" d="M0 0h36v36H0z"/></svg><svg fill="#fff" viewBox="0 0 36 36" id="upload" xmlns="http://www.w3.org/2000/svg"><path d="M30.31 13v-.32a10.26 10.26 0 0 0-10.45-10 10.47 10.47 0 0 0-9.6 6.1A9.74 9.74 0 0 0 1.6 18.4a9.62 9.62 0 0 0 9.65 9.6H15v-2h-3.75A7.65 7.65 0 0 1 11 10.74h.67l.23-.63a8.43 8.43 0 0 1 8-5.4 8.26 8.26 0 0 1 8.45 8 7.75 7.75 0 0 1 0 .8l-.08.72.65.3A6 6 0 0 1 26.38 26H21v2h5.38a8 8 0 0 0 3.93-15Z" class="kclr-i-outline kclr-i-outline-path-1"/><path d="M22.28 21.85a1 1 0 0 0 .72-1.71l-5-5-5 5a1 1 0 0 0 1.41 1.41L17 19v12.25a1 1 0 1 0 2 0V19l2.57 2.57a1 1 0 0 0 .71.28Z" class="kclr-i-outline kclr-i-outline-path-2"/><path fill="none" d="M0 0h36v36H0z"/></svg></svg>