<?xml version="1.0" encoding="utf-8"?><!DOCTYPE svg PUBLIC "-//W3C//DTD SVG 1.1//EN" "http://www.w3.org/Graphics/SVG/1.1/DTD/svg11.dtd"><svg viewBox="0 0 800 800" xmlns="http://www.w3.org/2000/svg" xmlns:xlink="http://www.w3.org/1999/xlink"><style>:root>svg{display:none}:root>svg:target{display:block}</style><svg version="1.1" id="dice" viewBox="0 0 512 512" xml:space="preserve" xmlns="http://www.w3.org/2000/svg"><style>.ast0{fill:#000}</style><path class="ast0" d="M449.528 105.602 288.459 8.989A63.044 63.044 0 0 0 255.993 0a63.029 63.029 0 0 0-32.452 8.989l-161.07 96.613a63.107 63.107 0 0 0-30.64 54.117v192.562a63.105 63.105 0 0 0 30.64 54.117l161.069 96.613a63.099 63.099 0 0 0 64.918 0l161.069-96.613a63.104 63.104 0 0 0 30.64-54.117V159.719a63.101 63.101 0 0 0-30.639-54.117zM250.595 492.733a44.068 44.068 0 0 1-17.321-5.948L72.206 390.172a44.205 44.205 0 0 1-21.456-37.891V159.719a44.13 44.13 0 0 1 3.518-17.233l196.328 117.76v232.487zM59.665 133.114a44.169 44.169 0 0 1 12.54-11.285l161.069-96.613a44.111 44.111 0 0 1 22.718-6.291 44.121 44.121 0 0 1 22.732 6.291l161.069 96.613a44.223 44.223 0 0 1 12.54 11.285l-196.34 117.767L59.665 133.114zm401.584 219.167a44.205 44.205 0 0 1-21.456 37.891l-161.069 96.613a44.129 44.129 0 0 1-17.32 5.948V260.246l196.328-117.76a44.019 44.019 0 0 1 3.518 17.233v192.562z"/><path class="ast0" d="M367.96 114.498c-10.809-8.01-28.626-8.204-39.784-.45-11.158 7.754-11.44 20.543-.631 28.546 10.822 8.002 28.626 8.203 39.784.45 11.158-7.762 11.44-20.537.631-28.546zM183.676 112.289c-10.816-8.003-28.626-8.211-39.784-.45-11.158 7.754-11.44 20.536-.631 28.538 10.808 8.009 28.626 8.204 39.784.456 11.158-7.766 11.439-20.542.631-28.544zM89.285 248.303c11.158 6.083 20.194 1.961 20.194-9.19 0-11.158-9.036-25.129-20.194-31.21-11.158-6.083-20.201-1.967-20.201 9.19 0 11.151 9.043 25.128 20.201 31.21zM202.057 309.771c11.164 6.082 20.207 1.967 20.207-9.184 0-11.157-9.043-25.135-20.207-31.217-11.144-6.076-20.194-1.961-20.194 9.198 0 11.151 9.05 25.121 20.194 31.203zM89.285 361.082c11.158 6.083 20.194 1.967 20.194-9.19 0-11.158-9.036-25.129-20.194-31.21-11.158-6.083-20.201-1.968-20.201 9.19 0 11.157 9.043 25.128 20.201 31.21zM202.057 422.55c11.164 6.082 20.207 1.967 20.207-9.191 0-11.151-9.043-25.128-20.207-31.21-11.144-6.076-20.194-1.961-20.194 9.19 0 11.158 9.05 25.129 20.194 31.211zM145.671 335.43c11.158 6.076 20.201 1.96 20.201-9.198 0-11.151-9.043-25.128-20.201-31.204-11.15-6.082-20.2-1.967-20.2 9.184 0 11.158 9.05 25.129 20.2 31.218zM414.538 204.559c-11.158 6.082-20.194 20.052-20.194 31.21 0 11.158 9.036 15.273 20.194 9.191 11.157-6.083 20.207-20.053 20.207-31.211 0-11.158-9.05-15.273-20.207-9.19zM414.538 270.33c-11.158 6.09-20.194 20.053-20.194 31.211 0 11.158 9.036 15.273 20.194 9.198 11.157-6.083 20.207-20.06 20.207-31.211 0-11.158-9.05-15.28-20.207-9.198zM316.36 302.642c11.158-6.082 20.208-20.053 20.208-31.211 0-11.151-9.05-15.266-20.208-9.19-11.158 6.082-20.194 20.059-20.194 31.21 0 11.158 9.037 15.273 20.194 9.191zM414.538 336.108c-11.158 6.082-20.194 20.053-20.194 31.204 0 11.158 9.036 15.273 20.194 9.198 11.157-6.083 20.207-20.06 20.207-31.218 0-11.151-9.05-15.266-20.207-9.184zM316.36 393.79c-11.158 6.082-20.194 20.053-20.194 31.211 0 11.15 9.037 15.266 20.194 9.184 11.158-6.076 20.208-20.053 20.208-31.204 0-11.158-9.05-15.273-20.208-9.191zM317.569 328.018c-11.158 6.076-20.194 20.053-20.194 31.204 0 11.158 9.036 15.273 20.194 9.191 11.158-6.082 20.208-20.053 20.208-31.21-.001-11.151-9.05-15.267-20.208-9.185z"/></svg></svg>